<svg width="179" height="24" viewBox="0 0 179 24" fill="none" xmlns="http://www.w3.org/2000/svg">
<path d="M0.56 1.324H5.552V23.5H0.56V1.324ZM27.613 23.5C27.3783 22.732 27.1117 21.9427 26.813 21.132C26.5357 20.3213 26.2583 19.5107 25.981 18.7H17.341C17.0637 19.5107 16.7757 20.3213 16.477 21.132C16.1997 21.9427 15.9437 22.732 15.709 23.5H10.525C11.357 21.1107 12.1463 18.9027 12.893 16.876C13.6397 14.8493 14.365 12.94 15.069 11.148C15.7943 9.356 16.4983 7.66 17.181 6.06C17.885 4.43867 18.6103 2.86 19.357 1.324H24.125C24.8503 2.86 25.565 4.43867 26.269 6.06C26.973 7.66 27.677 9.356 28.381 11.148C29.1063 12.94 29.8423 14.8493 30.589 16.876C31.3357 18.9027 32.125 21.1107 32.957 23.5H27.613ZM21.629 6.348C21.5223 6.668 21.3623 7.10533 21.149 7.66C20.9357 8.21467 20.6903 8.85467 20.413 9.58C20.1357 10.3053 19.8263 11.1053 19.485 11.98C19.165 12.8547 18.8343 13.772 18.493 14.732H24.797C24.4557 13.772 24.125 12.8547 23.805 11.98C23.485 11.1053 23.1757 10.3053 22.877 9.58C22.5997 8.85467 22.3543 8.21467 22.141 7.66C21.9277 7.10533 21.757 6.668 21.629 6.348ZM43.7955 1.324C44.1795 2.028 44.6168 2.90267 45.1075 3.948C45.6195 4.972 46.1422 6.092 46.6755 7.308C47.2302 8.50267 47.7742 9.72933 48.3075 10.988C48.8408 12.2467 49.3422 13.4307 49.8115 14.54C50.2808 13.4307 50.7822 12.2467 51.3155 10.988C51.8488 9.72933 52.3822 8.50267 52.9155 7.308C53.4702 6.092 53.9928 4.972 54.4835 3.948C54.9955 2.90267 55.4435 2.028 55.8275 1.324H60.3715C60.5848 2.796 60.7768 4.44933 60.9475 6.284C61.1395 8.09733 61.2995 9.996 61.4275 11.98C61.5768 13.9427 61.7048 15.916 61.8115 17.9C61.9395 19.884 62.0462 21.7507 62.1315 23.5H57.2675C57.2035 21.3453 57.1182 18.9987 57.0115 16.46C56.9048 13.9213 56.7448 11.3613 56.5315 8.78C56.1475 9.676 55.7208 10.668 55.2515 11.756C54.7822 12.844 54.3128 13.932 53.8435 15.02C53.3955 16.108 52.9582 17.1533 52.5315 18.156C52.1048 19.1373 51.7422 19.98 51.4435 20.684H47.9555C47.6568 19.98 47.2942 19.1373 46.8675 18.156C46.4408 17.1533 45.9928 16.108 45.5235 15.02C45.0755 13.932 44.6168 12.844 44.1475 11.756C43.6782 10.668 43.2515 9.676 42.8675 8.78C42.6542 11.3613 42.4942 13.9213 42.3875 16.46C42.2808 18.9987 42.1955 21.3453 42.1315 23.5H37.2675C37.3528 21.7507 37.4488 19.884 37.5555 17.9C37.6835 15.916 37.8115 13.9427 37.9395 11.98C38.0888 9.996 38.2488 8.09733 38.4195 6.284C38.6115 4.44933 38.8142 2.796 39.0275 1.324H43.7955ZM75.3622 1.068C78.6689 1.068 81.2076 1.65467 82.9782 2.828C84.7489 3.98 85.6342 5.87867 85.6342 8.524C85.6342 11.1907 84.7382 13.1213 82.9462 14.316C81.1542 15.4893 78.5942 16.076 75.2662 16.076H73.6982V23.5H68.7062V1.644C69.7942 1.43067 70.9462 1.28133 72.1622 1.196C73.3782 1.11067 74.4449 1.068 75.3622 1.068ZM75.6822 5.324C75.3196 5.324 74.9569 5.33467 74.5942 5.356C74.2529 5.37733 73.9542 5.39867 73.6982 5.42V11.82H75.2662C76.9942 11.82 78.2956 11.5853 79.1702 11.116C80.0449 10.6467 80.4822 9.772 80.4822 8.492C80.4822 7.87333 80.3649 7.36133 80.1302 6.956C79.9169 6.55067 79.5969 6.23067 79.1702 5.996C78.7649 5.74 78.2636 5.56933 77.6662 5.484C77.0689 5.37733 76.4076 5.324 75.6822 5.324ZM104.041 23.5C103.806 22.732 103.539 21.9427 103.241 21.132C102.963 20.3213 102.686 19.5107 102.409 18.7H93.7685C93.4912 19.5107 93.2032 20.3213 92.9045 21.132C92.6272 21.9427 92.3712 22.732 92.1365 23.5H86.9525C87.7845 21.1107 88.5738 18.9027 89.3205 16.876C90.0672 14.8493 90.7925 12.94 91.4965 11.148C92.2218 9.356 92.9258 7.66 93.6085 6.06C94.3125 4.43867 95.0378 2.86 95.7845 1.324H100.553C101.278 2.86 101.993 4.43867 102.697 6.06C103.401 7.66 104.105 9.356 104.809 11.148C105.534 12.94 106.27 14.8493 107.017 16.876C107.763 18.9027 108.553 21.1107 109.385 23.5H104.041ZM98.0565 6.348C97.9498 6.668 97.7898 7.10533 97.5765 7.66C97.3632 8.21467 97.1178 8.85467 96.8405 9.58C96.5632 10.3053 96.2538 11.1053 95.9125 11.98C95.5925 12.8547 95.2618 13.772 94.9205 14.732H101.225C100.883 13.772 100.553 12.8547 100.233 11.98C99.9125 11.1053 99.6032 10.3053 99.3045 9.58C99.0272 8.85467 98.7818 8.21467 98.5685 7.66C98.3552 7.10533 98.1845 6.668 98.0565 6.348ZM121.727 23.788C120.511 23.788 119.295 23.7453 118.079 23.66C116.884 23.596 115.636 23.4253 114.335 23.148V1.644C115.359 1.452 116.479 1.31333 117.695 1.228C118.911 1.12133 120.042 1.068 121.087 1.068C122.495 1.068 123.786 1.17467 124.959 1.388C126.154 1.58 127.178 1.92133 128.031 2.412C128.884 2.90267 129.546 3.55333 130.015 4.364C130.506 5.15333 130.751 6.13467 130.751 7.308C130.751 9.07867 129.898 10.476 128.191 11.5C129.599 12.0333 130.559 12.7587 131.071 13.676C131.583 14.5933 131.839 15.628 131.839 16.78C131.839 19.1053 130.986 20.8547 129.279 22.028C127.594 23.2013 125.076 23.788 121.727 23.788ZM119.199 13.836V19.564C119.562 19.6067 119.956 19.6387 120.383 19.66C120.81 19.6813 121.279 19.692 121.791 19.692C123.284 19.692 124.49 19.4787 125.407 19.052C126.324 18.6253 126.783 17.836 126.783 16.684C126.783 15.66 126.399 14.9347 125.631 14.508C124.863 14.06 123.764 13.836 122.335 13.836H119.199ZM119.199 10.028H121.631C123.167 10.028 124.266 9.836 124.927 9.452C125.588 9.04667 125.919 8.40667 125.919 7.532C125.919 6.636 125.578 6.00667 124.895 5.644C124.212 5.28133 123.21 5.1 121.887 5.1C121.46 5.1 121.002 5.11067 120.511 5.132C120.02 5.132 119.583 5.15333 119.199 5.196V10.028ZM152.731 19.212V23.5H137.915V1.324H142.907V19.212H152.731ZM161.593 12.396C161.593 13.484 161.721 14.4653 161.977 15.34C162.255 16.2147 162.639 16.972 163.129 17.612C163.641 18.2307 164.26 18.7107 164.985 19.052C165.711 19.3933 166.543 19.564 167.481 19.564C168.399 19.564 169.22 19.3933 169.945 19.052C170.692 18.7107 171.311 18.2307 171.801 17.612C172.313 16.972 172.697 16.2147 172.953 15.34C173.231 14.4653 173.369 13.484 173.369 12.396C173.369 11.308 173.231 10.3267 172.953 9.452C172.697 8.556 172.313 7.79867 171.801 7.18C171.311 6.54 170.692 6.04933 169.945 5.708C169.22 5.36667 168.399 5.196 167.481 5.196C166.543 5.196 165.711 5.37733 164.985 5.74C164.26 6.08133 163.641 6.572 163.129 7.212C162.639 7.83067 162.255 8.588 161.977 9.484C161.721 10.3587 161.593 11.3293 161.593 12.396ZM178.521 12.396C178.521 14.2947 178.233 15.9693 177.657 17.42C177.103 18.8493 176.335 20.0547 175.353 21.036C174.372 21.996 173.199 22.7213 171.833 23.212C170.489 23.7027 169.039 23.948 167.481 23.948C165.967 23.948 164.537 23.7027 163.193 23.212C161.849 22.7213 160.676 21.996 159.673 21.036C158.671 20.0547 157.881 18.8493 157.305 17.42C156.729 15.9693 156.441 14.2947 156.441 12.396C156.441 10.4973 156.74 8.83333 157.337 7.404C157.935 5.95333 158.735 4.73733 159.737 3.756C160.761 2.77467 161.935 2.03867 163.257 1.548C164.601 1.05733 166.009 0.811998 167.481 0.811998C168.996 0.811998 170.425 1.05733 171.769 1.548C173.113 2.03867 174.287 2.77467 175.289 3.756C176.292 4.73733 177.081 5.95333 177.657 7.404C178.233 8.83333 178.521 10.4973 178.521 12.396Z" fill="#09090A"/>
</svg>
